<?xml version="1.0" encoding="UTF-8" standalone="no"?>
<!-- Created with Inkscape (http://www.inkscape.org/) -->

<svg
   xmlns:dc="http://purl.org/dc/elements/1.1/"
   xmlns:cc="http://creativecommons.org/ns#"
   xmlns:rdf="http://www.w3.org/1999/02/22-rdf-syntax-ns#"
   xmlns:svg="http://www.w3.org/2000/svg"
   xmlns="http://www.w3.org/2000/svg"
   xmlns:sodipodi="http://sodipodi.sourceforge.net/DTD/sodipodi-0.dtd"
   xmlns:inkscape="http://www.inkscape.org/namespaces/inkscape"
   version="1.1"
   id="svg4485"
   width="301.87527"
   height="100.587"
   viewBox="0 0 301.87527 100.587"
   sodipodi:docname="logo.svg"
   inkscape:version="0.92.1 r15371">
  <metadata
     id="metadata4491">
    <rdf:RDF>
      <cc:Work
         rdf:about="">
        <dc:format>image/svg+xml</dc:format>
        <dc:type
           rdf:resource="http://purl.org/dc/dcmitype/StillImage" />
        <dc:title />
      </cc:Work>
    </rdf:RDF>
  </metadata>
  <defs
     id="defs4489" />
  <sodipodi:namedview
     pagecolor="#ffffff"
     bordercolor="#666666"
     borderopacity="1"
     objecttolerance="10"
     gridtolerance="10"
     guidetolerance="10"
     inkscape:pageopacity="0"
     inkscape:pageshadow="2"
     inkscape:window-width="1366"
     inkscape:window-height="705"
     id="namedview4487"
     showgrid="false"
     inkscape:zoom="1.5730783"
     inkscape:cx="159.06085"
     inkscape:cy="23.258044"
     inkscape:window-x="-8"
     inkscape:window-y="-8"
     inkscape:window-maximized="1"
     inkscape:current-layer="svg4485" />
  <text
     xml:space="preserve"
     style="font-style:normal;font-weight:normal;font-size:31.37065125px;line-height:1.25;font-family:sans-serif;letter-spacing:0px;word-spacing:0px;fill:#e66043;fill-opacity:1;stroke:none;stroke-width:0.78426635"
     x="124.74136"
     y="62.400269"
     id="text4553-1"><tspan
       sodipodi:role="line"
       id="tspan4551-9"
       x="124.74136"
       y="62.400269"
       style="font-style:normal;font-variant:normal;font-weight:normal;font-stretch:normal;font-size:41.82753754px;font-family:'Cooper Black';-inkscape-font-specification:'Cooper Black, ';fill:#e66043;fill-opacity:1;stroke-width:0.78426635">PetShop</tspan></text>
  <g
     id="g4535"
     transform="matrix(0.13574467,0,0,0.13574467,0,-0.05307152)">
    <path
       style="fill:#aa9998;stroke-width:1.33333337"
       d="m 172,738.79914 c 0,-1.39379 1.16303,-9.34379 2.58451,-17.66667 6.23613,-36.51308 8.93365,-78.55228 6.82196,-106.31605 -3.04424,-40.02473 -11.51965,-65.42565 -27.64004,-82.83761 C 143.78759,521.20048 135.13204,517.1134 110,511.31265 63.518715,500.58425 34.965896,488.18134 28.65515,475.97772 c -1.057533,-2.04505 -4.546591,-4.97821 -7.788488,-6.54759 -7.89551,-3.82214 -15.2418065,-11.19564 -18.3283069,-18.39614 -3.13524966,-7.31424 -3.36050955,-20.92527 -0.4660306,-28.15928 3.0546874,-7.63442 6.3945956,-8.67774 21.6375825,-6.75908 6.93736,0.8732 18.390642,1.25109 25.451738,0.83976 22.51553,-1.31163 36.644884,-7.60714 57.505025,-25.62207 12.71167,-10.97787 24.6616,-18.5664 33.97376,-21.57424 4.19277,-1.35428 13.91488,-2.46016 26.02624,-2.96045 l 19.33334,-0.79864 0.38564,-10.90003 c 0.4901,-13.85265 -2.33953,-26.22704 -8.68279,-37.97114 -2.68936,-4.97918 -4.5132,-9.42959 -4.05299,-9.88982 1.2256,-1.22558 11.99771,4.98027 25.68347,14.79636 6.6,4.73383 12.38251,8.61244 12.85,8.61914 0.46751,0.007 3.91751,-7.73175 7.66667,-17.19654 8.79844,-22.21166 9.25084,-29.71116 2.1675,-35.93041 -2.55704,-2.24511 -7.20704,-4.77217 -10.33333,-5.61571 -6.25559,-1.68786 -22.34119,-1.07537 -38.35084,1.46028 -19.97007,3.16294 -47.16003,-1.1013 -67.34978,-10.56254 C 90.557762,255.58081 79.693202,247.87219 67.245235,235.32401 54.272783,222.2471 43.90146,207.00238 34.078432,186.57241 21.25285,159.8977 17.936347,146.75184 21.916343,138.36461 c 3.74579,-7.89366 4.818515,-8.06369 55.146463,-8.74086 l 45.729474,-0.61529 4.11967,-8.1709 C 138.82223,97.214912 154.65786,81.901588 174,75.30258 c 4.31951,-1.473697 11.36098,-2.338108 20.00001,-2.455198 l 13.33333,-0.180718 2.42497,-4.666666 c 3.58486,-6.898764 2.4036,-30.691543 -2.4162,-48.666665 -4.81205,-17.9463084 -5.03129,-19.77183083 -2.23588,-18.61728482 1.22491,0.50590542 3.42711,1.25665842 4.89378,1.66833992 3.78094,1.0612817 22.89265,12.4314609 39.33333,23.4006819 58.64392,39.127237 103.89134,84.04317 140.5781,139.54826 36.68312,55.49957 56.94913,101.35454 93.69527,211.99999 32.44689,97.70007 47.83718,135.64797 71.18105,175.51132 26.16891,44.68755 61.24975,82.93261 100.87092,109.96923 6.32938,4.31903 11.98738,7.85278 12.57335,7.85278 1.58059,0 17.52748,-13.58162 30.38326,-25.87675 55.03601,-52.63584 89.15834,-105.60233 104.3845,-162.03116 3.78763,-14.03714 4.16991,-17.28541 4.24759,-36.09209 0.0905,-21.92621 -1.12748,-29.04648 -7.79101,-45.54372 -5.41192,-13.39854 -11.70092,-22.68394 -22.87894,-33.77959 -17.29748,-17.17003 -28.4206,-22.48578 -50.63902,-24.2004 -20.32024,-1.56814 -42.18898,5.28784 -56.3331,17.66077 -11.86573,10.37985 -12.38163,6.85795 -2.03928,-13.92184 21.97674,-44.15556 67.668,-55.17296 113.60782,-27.39391 46.13787,27.8988 77.70836,74.70045 83.54109,123.84536 4.07724,34.35369 1.52235,72.83949 -6.61262,99.60965 -13.8396,45.54264 -36.8833,91.5544 -64.96403,129.7148 -17.37839,23.61641 -54.4983,58.68225 -70.34312,66.45058 -4.19298,2.05572 -25.3141,2.22496 -277.66668,2.22496 C 177.64899,741.33331 172,741.2809 172,738.79914 Z"
       id="path4549"
       inkscape:connector-curvature="0" />
    <path
       style="fill:#de8775;stroke-width:1.33333337"
       d="m 172,739.3769 c 0,-1.07602 1.48698,-11.12602 3.30439,-22.33334 11.54743,-71.20861 8.76268,-129.40925 -7.87213,-164.52567 -4.80214,-10.13741 -7.86096,-14.54217 -15.06239,-21.69009 -10.50544,-10.4274 -17.51737,-14.04274 -34.24422,-17.65622 -47.944524,-10.3574 -81.699896,-24.18474 -88.922133,-36.42553 -1.558824,-2.642 -5.672675,-6.26126 -9.701094,-8.53476 -7.983943,-4.50585 -14.5989362,-11.46794 -17.5052691,-18.42377 -2.77232716,-6.63512 -2.58991889,-21.25971 0.3382515,-27.11933 3.4288184,-6.86148 7.3393883,-8.22872 19.1505336,-6.69551 14.191681,1.84224 32.483521,1.60343 42.676728,-0.55716 15.11955,-3.20481 25.80871,-9.45661 45.953923,-26.87724 19.22315,-16.62325 29.48888,-20.56548 56.55008,-21.71618 l 19.33334,-0.82211 0.3866,-11.75967 c 0.45174,-13.74149 -1.7741,-23.89206 -7.96841,-36.33834 -2.33294,-4.6876 -3.8737,-8.89094 -3.4239,-9.34072 1.2873,-1.28732 15.31639,6.7554 27.00005,15.47884 5.86355,4.37794 11.00511,7.95989 11.42568,7.95989 0.42056,0 3.95648,-7.95 7.8576,-17.66667 10.93538,-27.23722 10.08511,-35.22682 -4.49896,-42.2745 -8.40994,-4.06406 -18.47302,-4.70956 -31.48075,-2.01936 -14.50593,3.00005 -38.27496,2.99236 -52.63125,-0.0171 C 108.11105,264.87499 88.381252,253.8858 69.317915,234.73815 51.451288,216.7925 38.358622,195.9858 27.951455,168.99912 c -5.591692,-14.49974 -6.954398,-22.43406 -4.916977,-28.62897 2.490769,-7.57333 5.240355,-8.32815 30.418447,-8.35053 12.165775,-0.0108 33.036825,-0.4151 46.380111,-0.89842 l 24.260514,-0.87878 5.92873,-11.45456 C 140.19895,99.126109 151.64992,87.289112 168,79.529903 c 7.55302,-3.584411 10.37999,-4.168473 22.00001,-4.545277 7.33333,-0.237799 14.53333,-0.684342 16,-0.992318 9.53529,-2.002249 10.40402,-26.032784 2.10592,-58.252746 -2.13508,-8.2900924 -3.7597,-15.19555494 -3.61026,-15.34547221 0.14944,-0.14991726 9.19655,5.11486431 20.10468,11.69951421 70.76819,42.718918 124.10386,92.993316 165.28853,155.801536 13.65433,20.8234 20.42652,32.69303 33.17202,58.14069 19.94749,39.82712 31.75617,70.38939 61.54951,159.29749 23.41415,69.87156 30.67756,89.56481 44.19831,119.83477 22.2662,49.84909 44.83374,84.16845 77.13488,117.30216 21.25279,21.80056 56.01106,49.52973 62.08508,49.52973 3.31776,0 28.81578,-22.34047 47.31542,-41.45612 45.49491,-47.00983 75.23772,-95.9517 89.05719,-146.54388 3.9584,-14.49142 4.18715,-16.61449 4.16627,-38.66666 -0.0208,-21.91232 -0.2488,-24.02353 -3.74455,-34.66667 -8.7107,-26.52045 -22.7162,-44.74538 -45.90242,-59.73135 -11.02336,-7.12475 -18.86382,-8.92362 -38.92057,-8.92968 -22.08687,-0.007 -33.59733,3.75286 -49.66667,16.2222 -4.21667,3.27201 -7.66667,5.3315 -7.66667,4.57666 0,-3.03953 5.60792,-15.30462 10.64266,-23.27657 2.93936,-4.65415 8.49724,-11.44091 12.35083,-15.08168 13.85272,-13.08769 26.07134,-17.77957 46.30172,-17.77957 20.86772,0 33.83841,4.46521 56.01138,19.28213 39.46421,26.37167 64.61247,63.8907 74.93731,111.79998 3.85076,17.86831 4.19038,57.54451 0.65482,76.49963 -6.69632,35.9008 -26.59951,85.7767 -49.59644,124.28499 -24.11353,40.37799 -52.47141,72.07159 -85.11826,95.13061 l -10.85068,7.66403 -273.00001,0.003 C 205.92454,741.33298 172,741.09019 172,739.3769 Z"
       id="path4547"
       inkscape:connector-curvature="0" />
    <path
       style="fill:#e66043;stroke-width:1.33333337"
       d="m 173.83395,739.28523 c 1.36912,-3.56785 5.96745,-32.5618 8.34511,-52.61858 3.19164,-26.92307 3.2079,-71.52799 0.0335,-91.90234 C 177.56966,564.96445 168.293,543.21576 154,528.62118 143.8784,518.28602 135.6544,514.4007 113.02687,509.26394 70.745031,499.6654 43.587008,489.10274 34.051133,478.54768 c -2.594789,-2.87212 -4.717799,-5.8102 -4.717799,-6.52907 0,-0.71888 -3.020491,-2.83764 -6.712203,-4.70837 C 14.654082,463.27304 5.7390003,454.7472 4.5560375,450.03391 4.0912185,448.18192 3.22363,446.66665 2.628063,446.66665 c -1.86444722,0 -2.90267551,-7.82274 -1.95383922,-14.72161 0.50032922,-3.63783 1.38930482,-6.31781 1.97550152,-5.95552 0.5861967,0.36228 1.4369007,-0.81983 1.8904535,-2.62693 1.3615304,-5.42476 4.9901681,-6.44362 17.1302742,-4.8098 34.202753,4.60297 57.162406,-0.95258 78.996217,-19.1147 32.44671,-26.9903 39.69045,-30.10477 70.01872,-30.10477 18.8682,0 18.65804,0.17578 18.62824,-15.57901 -0.0217,-11.49484 -2.32202,-22.99799 -6.58993,-32.95461 -1.5349,-3.58076 -2.48468,-6.8165 -2.11064,-7.19055 0.7888,-0.7888 12.70792,6.91253 23.58117,15.23656 5.70608,4.36828 7.8533,5.36648 8.87366,4.12517 0.74036,-0.90065 4.48936,-9.43756 8.33113,-18.97089 10.81707,-26.84247 9.92825,-34.91064 -4.62035,-41.94117 -8.40994,-4.06406 -18.47302,-4.70956 -31.48075,-2.01936 -14.50593,3.00005 -38.27496,2.99236 -52.63125,-0.0171 C 108.11105,264.87499 88.381252,253.8858 69.317915,234.73815 51.451288,216.7925 38.358622,195.9858 27.951455,168.99912 c -5.591692,-14.49974 -6.954398,-22.43406 -4.916977,-28.62897 2.490769,-7.57333 5.240355,-8.32815 30.418447,-8.35053 12.165775,-0.0108 33.036825,-0.4151 46.380111,-0.89842 l 24.260514,-0.87878 5.92873,-11.45456 C 140.19895,99.126109 151.64992,87.289112 168,79.529903 c 7.55302,-3.584411 10.37999,-4.168473 22.00001,-4.545277 7.33333,-0.237799 14.53333,-0.684342 16,-0.992318 9.53529,-2.002249 10.40402,-26.032784 2.10592,-58.252746 -2.13508,-8.2900924 -3.7597,-15.19555494 -3.61026,-15.34547221 0.14944,-0.14991726 9.19655,5.11486431 20.10468,11.69951421 70.76819,42.718918 124.10386,92.993316 165.28853,155.801536 13.65433,20.8234 20.42652,32.69303 33.17202,58.14069 19.94749,39.82712 31.75617,70.38939 61.54951,159.29749 23.41415,69.87156 30.67756,89.56481 44.19831,119.83477 22.2662,49.84909 44.83374,84.16845 77.13488,117.30216 21.25279,21.80056 56.01106,49.52973 62.08508,49.52973 3.31776,0 28.81578,-22.34047 47.31542,-41.45612 45.49491,-47.00983 75.23772,-95.9517 89.05719,-146.54388 3.9584,-14.49142 4.18715,-16.61449 4.16627,-38.66666 -0.0208,-21.91232 -0.2488,-24.02353 -3.74455,-34.66667 -8.7107,-26.52045 -22.7162,-44.74538 -45.90242,-59.73135 -11.02336,-7.12475 -18.86382,-8.92362 -38.92057,-8.92968 -22.08687,-0.007 -33.59733,3.75286 -49.66667,16.2222 -4.21667,3.27201 -7.66667,5.3315 -7.66667,4.57666 0,-3.03953 5.60792,-15.30462 10.64266,-23.27657 2.93936,-4.65415 8.49724,-11.44091 12.35083,-15.08168 13.85272,-13.08769 26.07134,-17.77957 46.30172,-17.77957 20.86772,0 33.83841,4.46521 56.01138,19.28213 39.46421,26.37167 64.61247,63.8907 74.93731,111.79998 3.85076,17.86831 4.19038,57.54451 0.65482,76.49963 -6.69632,35.9008 -26.59951,85.7767 -49.59644,124.28499 -24.11353,40.37799 -52.47141,72.07159 -85.11826,95.13061 l -10.85068,7.66403 -272.47599,0.003 c -244.49665,0.003 -272.39529,-0.20767 -271.69008,-2.04544 z"
       id="path4545"
       inkscape:connector-curvature="0" />
    <path
       style="fill:#e65e43;stroke-width:1.33333337"
       d="m 178.10375,737.93866 c -1.097,-4.3708 0.46108,-7.12251 2.23655,-3.94994 1.0624,1.89842 1.51941,1.99208 2.46173,0.50456 1.98995,-3.14129 1.35875,-10.74842 -1.03721,-12.5004 -2.0905,-1.5286 -2.08719,-2.44437 0.0511,-14.14698 1.25744,-6.88192 2.63014,-14.80286 3.05043,-17.60208 0.54727,-3.64483 1.61546,-5.41315 3.76316,-6.22971 2.68322,-1.02014 2.93252,-1.83198 2.36771,-7.71014 -0.50025,-5.20615 -0.18492,-6.74123 1.51909,-7.39511 1.84172,-0.70673 2.15039,0.41284 2.15039,7.79963 0,4.861 -0.58187,8.62482 -1.33333,8.62482 -0.73334,0 -1.33334,2.33582 -1.33334,5.19068 0,3.20148 -0.71026,5.46324 -1.8534,5.90191 -1.99498,0.76554 -6.1466,8.21798 -6.1466,11.03357 0,3.85776 2.59184,2.9112 4.8862,-1.78447 3.3581,-6.87274 6.33291,-6.58714 6.85714,0.65831 0.31218,4.31487 -0.064,5.66667 -1.57682,5.66667 -2.2481,0 -4.13226,4.5647 -2.78438,6.74564 0.48818,0.78988 1.7269,1.11408 2.75273,0.72044 1.33017,-0.51044 1.86513,0.37864 1.86513,3.09978 0,2.16156 -0.86696,4.14818 -2,4.58298 -1.1,0.4221 -2,1.74368 -2,2.93681 0,1.7362 -3.04198,7.1422 -6.30737,11.20907 -0.27736,0.34542 -1.11735,-0.25458 -1.86663,-1.33334 -1.03092,-1.48422 -1.52687,-1.55592 -2.03861,-0.29472 -1.09623,2.70164 -2.76879,1.91706 -3.68364,-1.72798 z m 79.89626,2.06132 c -0.45323,-0.73334 -1.98152,-1.33334 -3.3962,-1.33334 -2.29018,0 -2.5579,-0.9501 -2.44214,-8.66666 0.11027,-7.34999 0.48819,-8.66667 2.48759,-8.66667 1.29665,0 3.10449,0.9 4.01741,2 0.91292,1.1 2.20431,2 2.86974,2 2.0638,0 -4.7086,-10.48785 -7.1917,-11.13719 -2.5071,-0.65562 -3.30438,-4.86281 -0.92152,-4.86281 1.5832,0 0.40826,-5.16752 -1.6674,-7.33333 -0.82016,-0.85579 -0.95348,-0.0201 -0.37225,2.33333 0.84107,3.40556 0.61155,3.66667 -3.22327,3.66667 -3.16432,0 -4.05462,-0.54507 -3.81121,-2.33334 0.17469,-1.28333 -1.48239,-6.05321 -3.68239,-10.59973 -3.11093,-6.42905 -4.6668,-8.28126 -7,-8.33333 -2.42957,-0.0543 -3,-0.82751 -3,-4.06693 0,-3.19596 0.57246,-4 2.8479,-4 2.61301,0 2.77929,-0.50054 2.01609,-6.06875 -0.52904,-3.85973 -0.35235,-5.77241 0.48543,-5.25464 0.72449,0.44775 1.31725,-0.19129 1.31725,-1.42009 0,-1.57776 -0.78351,-2.02931 -2.66667,-1.53686 -2.19508,0.57403 -2.66666,0.0409 -2.66666,-3.01456 0,-4.59853 -3.5291,-8.15037 -4.80208,-4.83304 -0.4585,1.19483 -0.5488,3.6624 -0.20067,5.48351 0.54329,2.84204 0.13972,3.31121 -2.84881,3.31192 -3.37047,8e-4 -3.46692,-0.22299 -3.01726,-7 0.2555,-3.85045 1.2143,-7.90083 2.13067,-9.00083 2.81984,-3.38486 3.37493,-6.50606 1.49196,-8.38904 -0.98975,-0.98976 -2.01425,-2.83881 -2.27668,-4.10901 -0.70405,-3.40783 -3.07804,-3.29829 -3.56987,0.16472 -0.23433,1.65 0.21567,3 1,3 2.47874,0 1.5813,9.38205 -1.2406,12.96951 -1.46666,1.86456 -2.66666,5.1092 -2.66666,7.2103 0,2.9313 -0.62048,3.82019 -2.66667,3.82019 -2.38816,0 -2.66667,-0.88889 -2.66667,-8.51116 0,-7.38981 0.35134,-8.60303 2.66667,-9.20851 1.59547,-0.41722 2.66667,-1.81868 2.66667,-3.48884 0,-3.11722 -2.54046,-3.66272 -5.23854,-1.12482 -1.46589,1.37885 -1.63125,0.40172 -0.95762,-5.65856 0.44782,-4.02888 1.42516,-7.52888 2.17185,-7.77779 1.86791,-0.62263 1.71251,-3.88981 -0.21557,-4.53251 -0.88886,-0.29628 -1.19159,-1.51889 -0.69595,-2.81052 0.63881,-1.6647 1.77552,-2.06068 4.18185,-1.45673 2.75236,0.6908 3.44746,0.2602 4.15947,-2.57669 0.47017,-1.87336 0.54365,-4.18186 0.16328,-5.12999 -0.38036,-0.94813 -0.73895,-0.43807 -0.79684,1.13347 -0.26927,7.30906 -8.10527,2.09 -8.10527,-5.39842 0,-4.70308 2.29922,-5.50341 5.44106,-1.89397 2.44322,2.80684 2.63554,2.8482 2.02304,0.43504 -0.37227,-1.46667 -1.37143,-5.50168 -2.22038,-8.96669 -1.36849,-5.58564 -1.82889,-6.14728 -4.06028,-4.95308 -1.9588,1.0483 -2.51677,0.89312 -2.51677,-0.69999 0,-1.46448 -1.37748,-2.04691 -4.84112,-2.04691 -4.78807,0 -4.83283,-0.0512 -4.08383,-4.66666 0.41651,-2.56667 0.3155,-4.66667 -0.22448,-4.66667 -0.53997,0 -0.74586,-2.02074 -0.45752,-4.49054 0.53014,-4.54103 -2.72206,-12.84279 -5.03114,-12.84279 -1.43099,0 -0.21036,13.29639 1.41173,15.37805 0.5906,0.75792 0.51733,2.25792 -0.16283,3.33334 -0.68016,1.0754 -1.24584,3.24109 -1.25706,4.81262 -0.0107,1.57155 -0.9625,3.21887 -2.11394,3.66071 -2.91082,1.117 -1.96098,6.87264 1.09416,6.63009 3.01418,-0.23928 3.16939,5.73063 0.2571,9.88851 -1.1634,1.66098 -1.4564,2.96334 -0.66667,2.96334 0.78096,0 1.40893,2.67424 1.40893,6 0,3.3 -0.6,6 -1.33333,6 -0.73333,0 -1.33333,1.23542 -1.33333,2.74536 0,1.50995 0.57402,2.39059 1.27561,1.95699 1.81393,-1.12108 0.0143,13.05389 -1.81272,14.27724 -3.10021,2.07596 -3.77887,0.77851 -3.12771,-5.97959 0.37096,-3.85 0.15311,-8.37378 -0.48412,-10.05285 -0.6655,-1.75357 -0.63172,-6.77316 0.0793,-11.79437 1.01842,-7.19146 0.84846,-9.55827 -0.95847,-13.34747 -1.76996,-3.71163 -1.88339,-5.10721 -0.5842,-7.18753 0.88672,-1.41988 1.61223,-4.26974 1.61223,-6.33302 0,-2.06328 0.75,-4.57411 1.66666,-5.57963 0.91667,-1.00552 -0.0539,-0.53371 -2.15672,1.04849 -4.43832,3.33942 -6.17657,2.78413 -6.17657,-1.97317 0,-4.46346 -3.86587,-19.42951 -5.43666,-21.04711 -0.6765,-0.69667 -1.23001,-2.72167 -1.23001,-4.5 0,-2.91023 0.41639,-3.15005 4.16667,-2.4 2.29166,0.45833 5.25365,0.83333 6.58218,0.83333 1.75062,0 2.53054,1.19283 2.83334,4.33334 0.2648,2.74637 1.13969,4.33333 2.38897,4.33333 1.60255,0 1.97655,-2.43065 2,-12.99803 0.0215,-9.70218 -0.40494,-12.99853 -1.68192,-13 -1.31546,-10e-4 -1.59482,-3.24465 -1.20901,-14.03548 0.40603,-11.35626 0.94004,-14.354 2.79912,-15.71338 2.15001,-1.57214 2.12065,-1.8398 -0.45765,-4.17315 -2.37127,-2.14596 -2.75503,-4.06589 -2.75503,-13.7832 0,-9.48436 0.29624,-11.04408 1.85235,-9.75264 2.46633,2.04688 3.49184,7.92041 2.04657,11.72173 -0.64144,1.68711 -0.67821,3.06748 -0.0817,3.06748 0.59649,0 1.71361,3.45 2.4825,7.66667 l 1.39798,7.66667 -0.56302,-10.66667 c -1.27862,-24.22462 -1.76576,-27.09298 -4.48064,-26.38302 -2.31772,0.6061 -2.49692,-0.28667 -2.47225,-12.31687 0.0252,-12.27692 0.132,-12.76723 1.99769,-9.17107 1.0841,2.0896 2.23722,4.0654 2.56248,4.39068 0.32527,0.32527 0.5914,-4.24194 0.5914,-10.14934 0,-9.41094 -0.28889,-10.71782 -2.33333,-10.55556 -1.72056,0.13656 -2.44575,-0.98886 -2.76137,-4.28538 -0.25791,-2.69356 0.0943,-4.14772 0.88612,-3.65836 0.72278,0.44671 1.56774,0.0585 1.87769,-0.86277 0.75396,-2.24095 -0.37305,-6.34164 -1.74292,-6.34164 -1.42939,0 -3.13312,-11.38047 -1.98247,-13.24228 0.61883,-1.00128 1.66375,-1.01471 3.47631,-0.0447 2.24444,1.20119 2.49709,2.40702 1.88647,9.0036 -0.46458,5.01867 -0.30027,6.70708 0.48169,4.95 1.57097,-3.53004 2.74545,-24.74182 1.32119,-23.86158 -0.61015,0.37709 -1.10938,1.79405 -1.10938,3.14878 0,1.80671 -0.71068,2.27731 -2.66666,1.7658 -3.08075,-0.80564 -3.33419,-1.85214 -1.01115,-4.17518 1.31848,-1.31848 1.29421,-1.87883 -0.11907,-2.75232 -1.01381,-0.62658 -1.58068,-2.73583 -1.3222,-4.91975 0.54654,-4.61764 -3.44186,-6.30309 -4.58364,-1.93697 -0.52377,2.00266 -1.80345,2.73124 -4.79728,2.73124 -3.05296,0 -3.89236,-0.49672 -3.3274,-1.96902 0.48663,-1.2681 -0.52152,-2.55089 -2.83217,-3.60369 -3.16911,-1.44395 -3.84559,-1.30108 -5.79743,1.22429 -1.65603,2.14267 -4.29759,3.08872 -10.543,3.77592 -7.7772,0.85575 -8.33333,0.737 -8.33333,-1.77929 0,-2.89816 -2.38999,-4.31488 -7.27912,-4.31488 -1.68358,0 -3.79971,-0.89005 -4.70255,-1.97791 -1.36504,-1.64477 -1.00188,-2.22108 2.1562,-3.42178 2.08875,-0.79414 5.74491,-1.07859 8.12481,-0.63212 3.45294,0.64777 4.1759,0.41772 3.5786,-1.13879 -0.9523,-2.48169 3.63496,-3.29232 10.49467,-1.85453 2.77161,0.58092 6.52161,0.68418 8.33333,0.22946 2.64468,-0.66377 3.29406,-0.32314 3.29406,1.72786 0,1.68112 1.74886,3.32621 5.11469,4.81121 6.86599,3.02927 7.24141,2.91328 6.18205,-1.90996 -1.01152,-4.60544 0.60763,-6.44501 5.70326,-6.47969 3.15393,-0.0215 4.1698,-3.65061 1.71033,-6.11008 -1.43306,-1.43307 -0.35144,-7.24367 1.3484,-7.24367 1.85863,0 6.60794,6.90036 6.60794,9.6008 0,1.41599 -0.63338,3.75799 -1.40751,5.20447 -0.77413,1.44646 -1.22413,5.15702 -1,8.24568 0.34627,4.7717 0.86135,3.41141 3.42716,-9.05095 1.6608,-8.06666 3.36853,-16.16666 3.79497,-18 0.59788,-2.57046 0.21195,-2.28348 -1.68632,1.25394 -3.9091,7.28462 -6.18253,6.96945 -5.5041,-0.76306 0.31321,-3.56998 1.04009,-7.54088 1.61529,-8.82421 0.64848,-1.44684 0.48504,-2.33333 -0.43017,-2.33333 -0.8118,0 -1.47599,1.12653 -1.47599,2.50341 0,1.37687 -0.894,3.24536 -1.98667,4.15219 -1.64424,1.3646 -2.18858,1.10546 -3.15813,-1.50342 -1.40487,-3.78022 -0.58975,-6.48552 1.95412,-6.48552 2.9672,0 2.14631,-2.6228 -1.22167,-3.9033 -2.14942,-0.81722 -3.52426,-2.92066 -4.55374,-6.967 -0.8111,-3.188 -1.89786,-7.15528 -2.415,-8.81618 -0.75749,-2.4327 -0.52022,-2.85861 1.2204,-2.19068 1.40184,0.53794 2.16069,2.41062 2.16069,5.33211 0,3.20532 1.18804,5.75783 4.12259,8.85735 2.86772,3.02896 3.82494,3.54268 3.14476,1.6877 -0.5378,-1.46666 -1.27228,-4.3931 -1.63219,-6.5032 -0.82505,-4.83733 2.22579,-4.28542 4.73319,0.85626 0.93593,1.91921 3.03593,3.90577 4.66666,4.41458 1.63075,0.50882 3.26879,1.3931 3.6401,1.96508 1.82166,2.80616 6.09113,-4.11396 12.89344,-20.89817 11.37794,-28.07435 10.62144,-35.98377 -4.12322,-43.10905 -8.40994,-4.06406 -18.47302,-4.70956 -31.48075,-2.01936 -14.50593,3.00005 -38.27496,2.99236 -52.63125,-0.0171 -24.55562,-5.14737 -44.285418,-16.13656 -63.348755,-35.28421 -17.866627,-17.94565 -30.959293,-38.75235 -41.36646,-65.73903 -5.591692,-14.49974 -6.954398,-22.43406 -4.916977,-28.62897 2.490769,-7.57333 5.240355,-8.32815 30.418447,-8.35053 12.165775,-0.0108 33.036825,-0.4151 46.380111,-0.89842 l 24.260514,-0.87878 5.92873,-11.45456 C 140.19895,99.126109 151.64992,87.289112 168,79.529903 c 7.55302,-3.584411 10.37999,-4.168473 22.00001,-4.545277 7.33333,-0.237799 14.53333,-0.684342 16,-0.992318 9.53529,-2.002249 10.40402,-26.032784 2.10592,-58.252746 -2.13508,-8.2900924 -3.7597,-15.19555494 -3.61026,-15.34547221 0.14944,-0.14991726 9.19655,5.11486431 20.10468,11.69951421 70.76819,42.718918 124.10386,92.993316 165.28853,155.801536 13.65433,20.8234 20.42652,32.69303 33.17202,58.14069 19.94749,39.82712 31.75617,70.38939 61.54951,159.29749 23.41415,69.87156 30.67756,89.56481 44.19831,119.83477 22.2662,49.84909 44.83374,84.16845 77.13488,117.30216 21.25279,21.80056 56.01106,49.52973 62.08508,49.52973 3.31776,0 28.81578,-22.34047 47.31542,-41.45612 45.49491,-47.00983 75.23772,-95.9517 89.05719,-146.54388 3.9584,-14.49142 4.18715,-16.61449 4.16627,-38.66666 -0.0208,-21.91232 -0.2488,-24.02353 -3.74455,-34.66667 -8.7107,-26.52045 -22.7162,-44.74538 -45.90242,-59.73135 -11.02336,-7.12475 -18.86382,-8.92362 -38.92057,-8.92968 -22.08687,-0.007 -33.59733,3.75286 -49.66667,16.2222 -4.21667,3.27201 -7.66667,5.3315 -7.66667,4.57666 0,-3.03953 5.60792,-15.30462 10.64266,-23.27657 2.93936,-4.65415 8.49724,-11.44091 12.35083,-15.08168 13.85272,-13.08769 26.07134,-17.77957 46.30172,-17.77957 20.86772,0 33.83841,4.46521 56.01138,19.28213 39.46421,26.37167 64.61247,63.8907 74.93731,111.79998 3.85076,17.86831 4.19038,57.54451 0.65482,76.49963 -6.69632,35.9008 -26.59951,85.7767 -49.59644,124.28499 -24.11353,40.37799 -52.47141,72.07159 -85.11826,95.13061 l -10.85068,7.66403 -222.06667,0.003 c -170.9437,0.003 -222.43502,-0.36571 -223.66668,-1.59736 -1.24444,-1.24444 -1.6,-1.22696 -1.6,0.0787 0,0.92328 -0.60978,1.30182 -1.35508,0.8412 -0.74529,-0.46061 -1.0355,-1.35457 -0.64492,-1.98656 0.39059,-0.63198 0.1004,-1.52594 -0.64492,-1.98656 -0.75029,-0.4637 -1.35508,0.38779 -1.35508,1.90787 0,3.01399 -2.04981,3.72336 -3.11696,1.07869 -0.53801,-1.33333 -0.69356,-1.33333 -0.77777,0 -0.12547,1.98718 -3.59981,2.22987 -4.77193,0.33334 z m 7.75256,-7.66667 c -1.4669,-4.12179 -1.88738,-4.389 -3.83758,-2.4388 -2.58725,2.58725 -2.42652,3.1548 1.08502,3.83116 1.65,0.3178 3.13117,0.65953 3.29149,0.7594 0.16031,0.0999 -0.0821,-0.86843 -0.53893,-2.15176 z m -19.18478,-44 c -0.21374,-2.16149 -5.04274,-11.56454 -5.13557,-10 -0.0544,0.91667 -1.04288,1.66667 -2.19664,1.66667 -1.29268,0 -1.91272,0.89551 -1.61559,2.33333 0.2652,1.28334 1.5092,2.25 2.76443,2.14815 1.41397,-0.1148 2.28225,0.77299 2.28225,2.33333 0,1.38519 0.9,2.51852 2,2.51852 1.1,0 1.95551,-0.45 1.90112,-1 z m -16.5755,-44.43388 -2.07475,-4.56612 0.86469,4.66667 c 1.00763,5.43807 2.16502,7.82496 2.82874,5.83379 0.25084,-0.75252 -0.47756,-3.42296 -1.61868,-5.93434 z m -5.29839,-16.69734 c -2.47113,-8.21095 -3.94339,-9.24904 -2.83072,-1.99595 0.99324,6.47447 1.70195,8.12717 3.48508,8.12717 0.65497,0 0.36051,-2.75905 -0.65436,-6.13122 z m -14.03639,-51.24027 c -1.84232,-7.67965 -3.99084,-8.73582 -3.99084,-1.96184 0,2.56667 0.53496,4.66667 1.18879,4.66667 0.65384,0 1.62781,1.65 2.1644,3.66667 1.70731,6.41671 2.29553,0.53927 0.63765,-6.3715 z m -27.1078,-6.96184 c -0.36988,-0.91666 -0.67252,-0.16666 -0.67252,1.66667 0,1.83333 0.30264,2.58333 0.67252,1.66667 0.36988,-0.91667 0.36988,-2.41667 0,-3.33334 z m 22.57702,-2.02041 c 2.13778,-1.43428 0.70393,-11.32781 -1.51814,-10.47513 -0.96082,0.3687 -2.47632,-0.20847 -3.36777,-1.2826 -2.50767,-3.02155 -2.983,-1.26374 -1.17493,4.34498 0.90421,2.80491 1.84046,5.84983 2.08056,6.7665 0.4915,1.87654 1.82406,2.09289 3.98028,0.64625 z m -2.25328,-22.42049 c -1.80468,-9.80382 -3.10744,-11.57144 -1.88608,-2.5591 1.06858,7.88515 2.04976,11.74066 2.7975,10.99291 0.29778,-0.29777 -0.1124,-4.09299 -0.91142,-8.43381 z m -4.36499,-24.5591 -1.82504,-10 -1.79856,4.66667 c -0.98921,2.56667 -1.56535,5.26667 -1.28031,6 0.28504,0.73333 0.59291,3.13333 0.68414,5.33333 0.0996,2.40344 0.82172,3.86202 1.80902,3.6543 0.90374,-0.19014 2.05874,0.70986 2.56667,2 1.79985,4.57161 1.72031,-1.37384 -0.15592,-11.6543 z m -5.25601,-62.33333 c -0.33538,-1.28333 -0.60978,-0.23333 -0.60978,2.33334 0,2.56666 0.2744,3.61666 0.60978,2.33333 0.33536,-1.28333 0.33536,-3.38333 0,-4.66667 z m -2.25244,-81.1111 c 0,-2.35458 -2.87035,-1.94452 -3.69444,0.52777 -0.29028,0.87083 0.42221,1.58333 1.58333,1.58333 1.16111,0 2.11111,-0.95 2.11111,-2.1111 z m 15.97958,-34.74624 c 0.0256,-3.58824 -3.82733,-5.19967 -6.36498,-2.66201 -1.66039,1.66037 -1.54152,2.02952 0.90338,2.8055 1.72128,0.54631 2.82328,2.02447 2.83576,3.80371 0.0167,2.36775 0.26132,2.53739 1.31292,0.91015 0.71088,-1.1 1.3017,-3.28582 1.31292,-4.85735 z m 23.57598,365.30177 c -0.4889,-0.48888 -0.8889,-3.48888 -0.8889,-6.66666 0,-4.78004 0.43587,-5.77778 2.52402,-5.77778 1.38821,0 2.83372,0.75 3.21225,1.66667 0.37853,0.91667 1.65077,3.91667 2.82721,6.66667 l 2.13898,5 h -4.46234 c -2.45429,0 -4.86234,-0.4 -5.35122,-0.8889 z m -44.2214,-43.30422 c -1.22638,-3.18223 -0.2338,-12.47355 1.3325,-12.47355 1.82806,0 2.46635,9.40518 0.83546,12.31035 -1.20348,2.14379 -1.39903,2.15851 -2.16796,0.1632 z M 170.61264,544.99998 c -0.94098,-2.38333 -2.86396,-5.62542 -4.27329,-7.20466 -2.39899,-2.68819 -2.4158,-2.95338 -0.26368,-4.15776 1.26429,-0.70754 1.87908,-1.96544 1.36617,-2.79534 -1.1525,-1.86481 -4.77517,-1.998 -4.77517,-0.17557 0,0.73333 -0.6,1.33333 -1.33333,1.33333 -2.52154,0 -1.32887,-2.24066 2,-3.7574 3.99376,-1.81968 4.44286,-5.57593 0.66666,-5.57593 -1.46666,0 -2.66666,0.6 -2.66666,1.33333 0,0.73334 -0.62719,1.33334 -1.39375,1.33334 -0.87073,0 -1.06523,-1.75124 -0.51828,-4.66667 0.69508,-3.70511 0.44901,-4.66667 -1.19423,-4.66667 -1.13833,0 -2.4627,0.63591 -2.94305,1.41312 -0.55733,0.90178 -1.46833,0.59946 -2.51759,-0.83548 -1.35066,-1.84714 -2.16412,-1.97036 -4.55633,-0.69009 -1.81979,0.97392 -3.71041,1.11176 -5.04039,0.36748 -1.92849,-1.07924 -1.9182,-1.27167 0.1096,-2.0498 1.52507,-0.58523 1.96763,-1.71024 1.38943,-3.53199 -0.79007,-2.4893 -0.24881,-2.67324 7.86623,-2.67324 7.21837,0 8.58221,0.34516 7.94325,2.01027 -1.0426,2.71697 9.4612,13.22077 12.17817,12.17817 1.71258,-0.65717 2.01027,1.29559 2.01027,13.18674 0,7.67698 -0.52721,13.95816 -1.17157,13.95816 -0.64436,0 -1.94147,-1.95 -2.88246,-4.33334 z M 150,521.33332 c -0.45322,-0.73334 0.11134,-1.33334 1.25464,-1.33334 1.14328,0 2.0787,0.6 2.0787,1.33334 0,0.73333 -0.56459,1.33333 -1.25464,1.33333 -0.69006,0 -1.62547,-0.6 -2.0787,-1.33333 z m 19.85127,-5.38631 c -1.54847,-0.58181 -3.14229,-2.30792 -3.54184,-3.83577 -0.58943,-2.25398 -0.1134,-2.77792 2.52391,-2.77792 3.32657,0 5.07369,2.3507 4.27942,5.75789 -0.31617,1.35631 -1.26608,1.60556 -3.26149,0.8558 z m -33.54749,-2.74757 c -1.66626,-0.62447 -3.37168,-2.02696 -3.78984,-3.11667 -1.05387,-2.74633 -4.8729,-3.72057 -8.77265,-2.23789 -3.8281,1.45544 -18.24875,-1.42992 -19.81538,-3.96478 -0.54926,-0.88873 -2.28534,-1.25613 -3.91803,-0.82918 -3.410219,0.8918 -6.674544,-0.0878 -6.674544,-2.00291 0,-0.73333 0.9,-0.98797 2,-0.56585 2.742244,1.05229 6.000004,-0.37288 6.000004,-2.62483 0,-2.47339 -4.576828,-2.37545 -6.666671,0.14265 -1.786624,2.15275 -7.591991,2.64107 -10.378493,0.87299 -0.987178,-0.62639 -1.3317,-2.07677 -0.813862,-3.42624 0.799448,-2.08333 0.109574,-2.29105 -6.288175,-1.8934 -6.975176,0.43355 -7.198522,0.33901 -7.608033,-3.22001 -0.419221,-3.64342 -0.370609,-3.66667 7.666667,-3.66667 7.808491,0 8.088563,0.1192 8.088563,3.44444 0,4.17696 3.131288,3.71979 3.759401,-0.54888 0.317959,-2.16085 1.349821,-2.89556 4.066667,-2.89556 2.002329,0 4.360599,0.72 5.240599,1.6 1.244444,1.24444 1.955557,1.24444 3.199997,0 2.28504,-2.28504 11.73334,-2.0944 11.73334,0.23675 0,3.03569 -3.48858,5.00908 -7.2058,4.07612 -2.16646,-0.54375 -3.46087,-0.31588 -3.46087,0.60925 0,0.93061 3.22153,1.47788 8.69967,1.47788 8.0528,0 8.7939,0.24785 9.967,3.33333 1.40366,3.69194 2.25501,3.93078 7.24653,2.033 3.25745,-1.23848 3.42013,-1.08376 3.42013,3.25286 0,4.17924 0.36159,4.58716 4.40294,4.96698 3.75357,0.3528 4.29434,0.83182 3.66666,3.24791 -0.60212,2.31771 -1.28825,2.62721 -3.76582,1.69871 z M 120,502.69441 c 0,-1.96811 -10.86287,-2.85743 -13.03747,-1.06735 -1.76682,1.4544 -1.2036,1.81055 3.81568,2.41282 6.25878,0.75101 9.22179,0.31869 9.22179,-1.34547 z m 7.33334,-8.00553 c -3.15624,-0.55356 -4.089,-1.47367 -4.4219,-4.3619 -0.37974,-3.29462 -0.009,-3.66033 3.70851,-3.66033 4.29186,0 5.91739,1.97661 5.15216,6.26492 -0.34678,1.94337 -1.27737,2.31179 -4.43877,1.75731 z m -65.698606,-2.92083 c -0.899103,-0.89911 -1.634732,-2.71473 -1.634732,-4.03473 0,-1.32 -0.553966,-2.4 -1.231034,-2.4 -0.677068,0 -3.062693,-1.54124 -5.301389,-3.42498 -2.720894,-2.28949 -5.296571,-3.28409 -7.768967,-3 -3.695007,0.42456 -3.693063,0.42874 1.99516,4.28676 6.811868,4.62014 6.564025,5.89476 -0.495791,2.54982 -3.269114,-1.54891 -5.365128,-3.58663 -5.859248,-5.69631 -0.482324,-2.05931 -1.99472,-3.5707 -4.054032,-4.05137 -4.12158,-0.96201 -7.223611,-10.92987 -4.770929,-15.33059 1.281945,-2.30013 1.542088,-1.79614 1.892617,3.66667 0.336599,5.24571 0.851793,6.33333 3,6.33333 1.704723,0 2.593612,-0.91392 2.593612,-2.66666 0,-1.48148 0.888889,-2.66667 2,-2.66667 1.214793,0 2,1.23975 2,3.15777 0,2.70143 0.809948,3.26642 5.604523,3.9095 4.60364,0.61748 5.936135,0.27829 7.461418,-1.89936 1.324568,-1.89108 3.062442,-2.53406 6.062145,-2.24283 3.893672,0.378 4.226039,0.80341 4.485853,5.74159 0.154334,2.93333 -0.04567,4.58333 -0.444444,3.66666 -0.398777,-0.91667 -2.848517,-1.66666 -5.443865,-1.66666 -4.131635,0 -4.503195,0.25981 -2.985999,2.08791 0.953048,1.14835 3.426515,2.96376 5.496592,4.03424 4.340391,2.2445 4.63267,4.00516 1.368863,8.24591 -1.844163,2.39617 -2.679599,2.69076 -3.970353,1.4 z M 14.996575,459.79656 c -1.160123,-1.16012 -0.875252,-2.37773 1.162341,-4.96811 3.206493,-4.0764 1.020122,-5.64212 -2.910909,-2.08458 -2.960535,2.67925 -2.808774,2.76293 -5.8585691,-3.23042 -1.5000372,-2.94782 -1.8322602,-4.9373 -0.9686845,-5.80088 0.8635756,-0.86358 1.6192308,-0.35376 2.2033146,1.48654 0.4889313,1.54048 1.713123,2.80088 2.720427,2.80088 3.282444,0 3.662812,-2.79887 0.795197,-5.85131 -3.5094824,-3.73567 -3.5190671,-5.48868 -0.0541,-9.89368 2.606843,-3.31407 2.628242,-3.58963 0.404996,-5.21531 -1.784711,-1.30501 -1.975478,-2.08816 -0.795974,-3.26765 1.179503,-1.17951 1.755736,-1.01853 2.404322,0.67165 0.469166,1.22263 2.009946,2.22296 3.423956,2.22296 2.164067,0 2.343398,-0.42514 1.133183,-2.68645 -2.000135,-3.73728 1.868528,-5.1254 5.39358,-1.93527 3.596062,3.25439 3.232548,5.945 -1.42003,10.51062 -3.003595,2.94745 -3.962963,5.10314 -3.962963,8.90476 0,4.72185 2.644308,9.20634 5.428572,9.20634 0.680952,0 1.238095,1.2 1.238095,2.66667 0,1.46667 0.6,2.66667 1.333333,2.66667 0.733334,0 1.333334,0.5168 1.333334,1.14844 0,0.63164 -1.578596,0.84666 -3.507992,0.47784 -2.384046,-0.45574 -3.900455,0.0307 -4.73292,1.51822 -1.445433,2.58284 -2.664787,2.7498 -4.762514,0.65207 z M 0,436.46155 c 0,-2.91971 0.30974045,-3.19768 2.0000001,-1.7949 2.5374918,2.10594 2.5374918,3.50844 0,4.48218 C 0.53934548,439.70933 0,438.98464 0,436.46155 Z m 5.3333335,-9.12823 c 0,-3.29492 1.8065978,-4.47031 3.2589698,-2.12032 0.9636799,1.55927 -0.5132596,5.45365 -2.0682882,5.45365 -0.6548749,0 -1.1906816,-1.5 -1.1906816,-3.33333 z m 43.3333345,2.36337 c -1.466667,-0.36334 -3.146481,-1.49374 -3.73292,-2.512 -0.704204,-1.22273 -3.533812,-1.85137 -8.333334,-1.85137 -3.996894,0 -7.26708,-0.52149 -7.26708,-1.15888 0,-2.178 9.989538,-2.81821 21.124857,-1.35383 8.116616,1.06739 11.523745,1.06411 12.6,-0.012 2.149573,-2.14972 6.275144,-1.80465 6.275144,0.52471 0,1.1 0.6,2 1.333334,2 1.735632,0 1.720881,-2.26977 -0.02175,-3.34677 -2.300717,-1.42192 -0.01885,-3.3199 3.991387,-3.3199 4.987284,0 8.03036,-1.22614 8.03036,-3.23569 0,-1.63339 13.330228,-9.21185 14.371587,-8.17049 1.034948,1.03494 -1.172519,3.40618 -3.170933,3.40618 -3.041966,0 -10.015869,5.62747 -11.384451,9.18647 -0.870259,2.26312 -0.693564,3.80859 0.609762,5.33333 4.678036,5.47282 4.344175,5.77423 -5.271461,4.7591 -5.034978,-0.53155 -9.501084,-1.50482 -9.924682,-2.16283 -0.423599,-0.65801 -2.523599,-0.28201 -4.666667,0.83556 -3.818036,1.99103 -9.254305,2.3936 -14.563156,1.07841 z m 50.000001,-3.6967 c -0.912918,-1.1 -3.612918,-2 -6,-2 -2.387081,0 -5.087032,-0.89995 -5.999889,-1.99987 -1.397391,-1.68375 -0.903904,-2.31568 3.121984,-3.9978 2.62995,-1.09887 5.402052,-3.15703 6.160227,-4.57368 0.758174,-1.41667 2.729814,-2.76765 4.381419,-3.0022 2.43796,-0.34623 3.00293,-1.27352 3.00293,-4.92881 0,-3.41688 0.70684,-4.76664 2.93179,-5.59848 2.30092,-0.86024 3.10926,-0.53695 3.75652,1.50237 0.923,2.90813 1.74091,3.13399 4.64502,1.28267 2.58675,-1.649 0.0138,-6.20542 -3.17685,-5.62575 -1.18607,0.21548 -2.15648,-0.17033 -2.15648,-0.85735 0,-1.86742 3.48923,-2.8452 4.9479,-1.38653 1.78223,1.78223 5.46026,0.1004 6.42452,-2.93775 0.86158,-2.7146 3.93085,-3.41617 5.29424,-1.21016 1.23152,1.99263 4.66667,1.6083 4.66667,-0.52212 0,-1.0205 -1.5,-2.23193 -3.33333,-2.69206 -4.86345,-1.22066 -4.14718,-4.51231 1.20018,-5.51547 6.35715,-1.19261 8.99203,-0.407 10.27304,3.06299 0.99159,2.68598 0.69334,3 -2.84952,3 -3.59482,0 -3.95704,0.40636 -3.95704,4.4392 0,3.72804 -0.47393,4.42224 -2.95839,4.33333 -3.99743,-0.14305 -4.97431,4.47937 -1.15757,5.47748 3.65754,0.95647 3.75421,5.74999 0.11596,5.74999 -1.48148,0 -2.66666,-0.8889 -2.66666,-2 0,-1.14784 -1.20247,-2 -2.82218,-2 -2.1912,0 -2.66192,0.61278 -2.10542,2.74086 0.63874,2.44256 0.18911,2.69652 -4.1313,2.33334 -3.55404,-0.29876 -5.75018,0.40129 -8.22791,2.62277 -1.85892,1.66667 -4.57986,4.06667 -6.04653,5.33333 -2.598104,2.24382 -2.520975,2.31358 3,2.71303 5.28991,0.38273 5.66667,0.67084 5.66667,4.33333 0,3.66768 -0.33689,3.92334 -5.17007,3.92334 -2.96902,0 -5.876727,-0.85146 -6.829931,-2 z"
       id="path4543"
       inkscape:connector-curvature="0" />
    <path
       style="fill:#6d5352;stroke-width:1.33333337"
       d="M 266.43495,726.99998 C 233.9767,657.81455 210.82529,580.74554 201.04821,509.33332 c -2.59108,-18.92547 -3.00667,-27.68323 -2.97367,-62.66667 0.0332,-35.25529 0.42928,-43.15057 2.97611,-59.33333 4.23172,-26.88857 9.62924,-46.7562 19.0542,-70.13617 12.23642,-30.35421 11.68141,-37.88599 -3.32618,-45.13833 -8.40994,-4.06406 -18.47302,-4.70956 -31.48075,-2.01936 -14.50593,3.00005 -38.27496,2.99236 -52.63125,-0.0171 C 108.11105,264.87499 88.381252,253.8858 69.317915,234.73815 51.451288,216.7925 38.358622,195.9858 27.951455,168.99912 c -5.591692,-14.49974 -6.954398,-22.43406 -4.916977,-28.62897 2.490769,-7.57333 5.240355,-8.32815 30.418447,-8.35053 12.165775,-0.0108 33.036825,-0.4151 46.380111,-0.89842 l 24.260514,-0.87878 5.92873,-11.45456 C 140.19895,99.126109 151.64992,87.289112 168,79.529903 c 7.55302,-3.584411 10.37999,-4.168473 22.00001,-4.545277 7.33333,-0.237799 14.53333,-0.684342 16,-0.992318 9.53529,-2.002249 10.40402,-26.032784 2.10592,-58.252746 -2.13508,-8.2900924 -3.7597,-15.19555494 -3.61026,-15.34547221 0.14944,-0.14991726 9.19655,5.11486431 20.10468,11.69951421 70.76819,42.718918 124.10386,92.993316 165.28853,155.801536 13.65433,20.8234 20.42652,32.69303 33.17202,58.14069 19.94749,39.82712 31.75617,70.38939 61.54951,159.29749 23.41415,69.87156 30.67756,89.56481 44.19831,119.83477 22.2662,49.84909 44.83374,84.16845 77.13488,117.30216 21.25279,21.80056 56.01106,49.52973 62.08508,49.52973 3.31776,0 28.81578,-22.34047 47.31542,-41.45612 45.49491,-47.00983 75.23772,-95.9517 89.05719,-146.54388 3.9584,-14.49142 4.18715,-16.61449 4.16627,-38.66666 -0.0208,-21.91232 -0.2488,-24.02353 -3.74455,-34.66667 -8.7107,-26.52045 -22.7162,-44.74538 -45.90242,-59.73135 -11.02336,-7.12475 -18.86382,-8.92362 -38.92057,-8.92968 -22.08687,-0.007 -33.59733,3.75286 -49.66667,16.2222 -4.21667,3.27201 -7.66667,5.3315 -7.66667,4.57666 0,-3.03953 5.60792,-15.30462 10.64266,-23.27657 2.93936,-4.65415 8.49724,-11.44091 12.35083,-15.08168 13.85272,-13.08769 26.07134,-17.77957 46.30172,-17.77957 20.86772,0 33.83841,4.46521 56.01138,19.28213 39.46421,26.37167 64.61247,63.8907 74.93731,111.79998 3.85076,17.86831 4.19038,57.54451 0.65482,76.49963 -6.69632,35.9008 -26.59951,85.7767 -49.59644,124.28499 -24.11353,40.37799 -52.47141,72.07159 -85.11826,95.13061 l -10.85068,7.66403 -222.4203,0.003 -222.4203,0.003 -6.72447,-14.33333 z"
       id="path4541"
       inkscape:connector-curvature="0" />
    <path
       style="fill:#521817;stroke-width:1.33333337"
       d="M 266.14446,724.29228 C 218.53311,621.50634 193.35603,509.21778 198.62545,423.1608 c 2.63826,-43.08648 8.0576,-68.58252 22.06917,-103.82748 10.94997,-27.54377 11.89624,-35.04905 5.30539,-42.07973 -8.52716,-9.0962 -22.58104,-12.19815 -40.03542,-8.83653 -16.16077,3.11248 -26.77151,3.69873 -39.96459,2.20808 -47.640009,-5.38272 -83.23767,-32.54991 -107.972482,-82.40171 -9.433769,-19.0133 -14.192497,-32.68366 -14.406887,-41.38655 -0.154742,-6.28158 0.277114,-7.55326 3.50914,-10.33334 3.562008,-3.0639 4.432021,-3.17034 25.944582,-3.17398 12.242441,-0.002 33.384289,-0.3926 46.981887,-0.86784 l 24.7229,-0.86407 6.58578,-12.66095 c 9.04204,-17.38305 21.34188,-30.496779 34.87936,-37.187364 9.5132,-4.701681 10.79342,-4.974093 25.90863,-5.513006 15.6838,-0.559187 15.93783,-0.618767 18.60439,-4.363599 6.07785,-8.53556 5.81215,-28.106999 -0.7318,-53.903998 -1.82943,-7.211839 -3.04989,-13.3887718 -2.71216,-13.7265166 0.79403,-0.7940149 22.78197,12.2632686 40.68667,24.1612836 75.67381,50.286732 129.60455,111.0517 171.231,192.92983 20.17802,39.6896 33.47291,73.08969 56.7884,142.66666 32.03502,95.59733 41.03591,119.8603 56.78703,153.07623 31.00508,65.38343 70.11527,112.89621 122.86112,149.25709 5.58488,3.85 11.20348,7 12.48578,7 3.15174,0 23.81459,-17.61534 42.40645,-36.15206 48.37224,-48.22875 80.7598,-100.37424 95.14089,-153.18127 3.87056,-14.21259 4.18028,-16.94134 4.23756,-37.33333 0.0723,-25.71128 -1.5763,-33.88546 -10.62138,-52.66666 -13.37152,-27.76457 -38.96083,-49.10775 -63.31684,-52.81041 -11.66311,-1.77306 -31.30296,-0.80683 -40.15803,1.97566 -8.19901,2.57635 -16.46287,6.83182 -24.17531,12.44907 -6.89338,5.02071 -7.41782,4.64025 -4.20458,-3.05013 8.25905,-19.76671 25.56857,-36.51142 43.51781,-42.09786 9.86962,-3.07176 30.45458,-3.30434 41.73998,-0.47161 26.09381,6.54979 62.95133,35.15469 82.00969,63.64726 10.03102,14.99654 14.43524,23.63052 19.77124,38.75935 14.93902,42.35559 15.1788,82.17653 0.78088,129.6766 -13.73601,45.31638 -37.5982,93.07121 -64.72865,129.5399 -12.39439,16.66049 -43.87804,48.03358 -58.55303,58.34741 -6.23333,4.38088 -11.81315,8.73088 -12.39959,9.66667 -0.85785,1.36886 -44.50951,1.69338 -223.33334,1.66038 l -222.26708,-0.041 z"
       id="path4539"
       inkscape:connector-curvature="0" />
    <path
       style="fill:#2f0604;stroke-width:1.33333337"
       d="m 373.32381,740.33331 c -0.043,-4.51065 -4.16247,-54.33954 -5.31861,-64.33333 C 356.57977,577.23734 331.25822,494.84045 292.05298,428.84979 272.90401,396.61805 254.80033,373.2596 230.41599,349.32211 l -14.43814,-14.17359 2.59264,-7.24093 c 1.42596,-3.98251 4.1091,-10.87783 5.96256,-15.32293 4.92317,-11.80712 7.59913,-23.19087 6.64589,-28.2721 -0.97528,-5.19872 -7.24243,-11.91806 -13.58948,-14.57004 -9.7954,-4.09277 -18.16621,-4.66884 -31.90678,-2.19574 C 121.4345,279.11046 68.509631,249.7655 37.801308,185.55182 25.097487,158.98706 21.699422,143.56756 27.206651,137.47609 c 2.375971,-2.62801 3.882659,-2.80965 23.333334,-2.81293 11.436342,-0.001 32.966303,-0.3979 47.844356,-0.87994 l 27.051009,-0.87644 6.70613,-13.05547 c 9.16258,-17.83766 20.5138,-30.052358 34.22718,-36.830789 9.72793,-4.808455 10.8234,-5.040586 25.93432,-5.495479 l 15.77736,-0.474956 3.62649,-4.756904 c 3.52387,-4.622272 3.62559,-5.250353 3.59422,-22.19171 -0.0259,-13.94324 -0.66062,-19.837977 -3.16978,-29.434806 -1.72562,-6.6 -3.44856,-12.8106358 -3.82873,-13.8014134 -0.95273,-2.482837 3.65736,-2.333e-4 26.05761,14.0324334 94.24945,59.042659 159.0439,136.696534 204.78601,245.428864 11.63776,27.6638 19.62131,49.78384 41.50819,115.00677 24.02729,71.60141 32.4676,94.65595 44.88372,122.59921 32.37728,72.86704 73.97781,125.48054 128.78728,162.88134 6.32937,4.31903 12.57268,7.85278 13.87403,7.85278 3.49804,0 24.72545,-18.16495 44.55293,-38.12531 51.20235,-51.54552 84.09892,-106.93761 96.12563,-161.85881 6.0936,-27.82709 2.85868,-59.36236 -8.38693,-81.75917 -8.82706,-17.57996 -25.13692,-35.09 -42.05306,-45.14754 -21.70973,-12.90759 -57.32868,-11.71575 -81.12497,2.7145 -4.75547,2.88375 -8.86498,5.03446 -9.13226,4.77935 -0.98956,-0.94448 5.64379,-12.99217 11.28596,-20.49793 18.04543,-24.00572 46.21797,-31.96616 78.53334,-22.19039 23.88319,7.22492 60.24478,37.51563 78.00868,64.98444 13.89938,21.49297 23.77282,48.42473 26.20356,71.47544 0.68087,6.45661 1.1822,8.02777 1.79502,5.62542 1.4414,-5.65061 2.64705,23.84239 1.47166,36 -0.60264,6.23333 -1.2464,9.83333 -1.43057,8 -0.18419,-1.83333 -1.15483,2.36667 -2.157,9.33333 -6.40099,44.49707 -34.96133,111.16537 -66.25839,154.66667 -18.98933,26.39418 -43.0732,51.26374 -64.19125,66.28534 -5.9651,4.24305 -10.9285,8.24757 -11.02978,8.89892 -0.10133,0.65133 -0.98541,1.69215 -1.96472,2.31291 -2.19616,1.3921 -345.11017,1.5605 -345.12342,0.16949 z"
       id="path4537"
       inkscape:connector-curvature="0" />
  </g>
  <text
     xml:space="preserve"
     style="font-style:normal;font-weight:normal;font-size:31.37065125px;line-height:1.25;font-family:sans-serif;letter-spacing:0px;word-spacing:0px;fill:#2f0604;fill-opacity:1;stroke:none;stroke-width:0.78426635"
     x="123.17274"
     y="60.832069"
     id="text4553"><tspan
       sodipodi:role="line"
       id="tspan4551"
       x="123.17274"
       y="60.832069"
       style="font-style:normal;font-variant:normal;font-weight:normal;font-stretch:normal;font-size:41.82753754px;font-family:'Cooper Black';-inkscape-font-specification:'Cooper Black, ';fill:#2f0604;fill-opacity:1;stroke-width:0.78426635">PetShop</tspan></text>
</svg>
